<svg xmlns="https://www.w3.org/2000/svg" width="145" height="146"><path d="M64 15c10.11 1.075 18.936 8.607 26.535 14.95a147.034 147.034 0 0 0 5.211 4.132C107.66 43.252 116.238 55.714 121 70c.69 10.114-.31 18.465-6 27l2.555.516 3.32.734 3.305.703C127 100 127 100 128.383 102.11L129 104c-4.722 3.72-8.254 4.457-14.25 4.688-7.35.581-10.914 2.243-16.074 7.707-3.391 3.302-7.066 5.763-11.051 8.293l-2.094 1.388c-4.78 2.995-4.78 2.995-7.898 2.701-2.602-2.832-2.843-6.226-3.383-9.902l-.379-2.285c-.306-1.86-.59-3.725-.871-5.59l-1.75 1C69 113 69 113 65 113c.532-4.138 2.78-6.27 5.563-9.25l2.503-2.703L75 99c3.434 1.385 4.7 2.654 6.25 6l1.016 2.125C83 109 83 109 83 111c4.618-2.372 7.437-5.448 10.688-9.375.485-.565.97-1.13 1.47-1.71 2.678-3.192 4.43-5.956 5.842-9.915l1.555-2.32c3.286-6.093 3.61-15.057 1.921-21.758C102.85 61.3 100.527 57.185 98 53l-1.617-2.746c-8.014-12.13-19.814-22.616-30.95-31.835L64 17v-2z" fill="#C2BEE3"/><path d="M56.438 15.25 58 16c-.585 3.626-2.026 5.459-4.5 8.125-3.967 4.308-4.638 6.258-4.625 12.188l-.008 3.425c.118 2.9.534 5.435 1.133 8.262.661 7.25.228 12.929-4 19-2.25 2.5-2.25 2.5-4 4l2.875 2.125C48.075 75.85 49.229 77.759 50 82c.256 5.038.337 9.983-.496 14.969-1.08 6.496-1.41 13.312.684 19.594 1.747 2.582 1.747 2.582 4.5 4.5C57 123 57 123 57.312 125.75L57 128l-2 1c-7.665-2.817-14.54-7.112-18.938-14.063-2.045-5.597-2.03-13.153-.562-18.89.742-3.038.71-5.988.75-9.11l.078-3.722c-.069-3.142-.069-3.142-1.582-5.106-2.06-1.309-3.51-1.598-5.934-1.796L25 76l-1-4 2.117-1.207 2.758-1.606 2.742-1.582C34.233 66.063 34.233 66.063 36 63c.28-3.033.28-3.033.188-6.375l-.02-3.398c-.15-2.87-.58-5.425-1.168-8.227-.652-7.154-.44-13.13 4-19 4.139-4.381 11.006-11.41 17.438-10.75z" fill="#3E3E57"/></svg>
